<?xml version="1.0" standalone="no"?>
<!DOCTYPE svg PUBLIC "-//W3C//DTD SVG 20010904//EN"
 "http://www.w3.org/TR/2001/REC-SVG-20010904/DTD/svg10.dtd">
<svg version="1.0" xmlns="http://www.w3.org/2000/svg"
 width="260.000000pt" height="260.000000pt" viewBox="0 0 260.000000 260.000000"
 preserveAspectRatio="xMidYMid meet">
<metadata>
Created by potrace 1.11, written by Peter Selinger 2001-2013
</metadata>
<g transform="translate(0.000000,260.000000) scale(0.100000,-0.100000)"
fill="#000000" stroke="none">
<path d="M352 2511 c-11 -6 -13 -239 -13 -1180 0 -644 3 -1176 6 -1181 10 -16
1970 -13 1982 3 15 20 9 277 -7 287 -8 5 -381 9 -829 9 -449 0 -823 0 -832 0
-13 1 -15 104 -14 1009 0 554 -2 1018 -6 1032 l-5 25 -135 2 c-74 1 -140 -2
-147 -6z"/>
<path d="M1517 2112 c-15 -32 -37 -82 -50 -112 -14 -30 -39 -86 -57 -125 -18
-38 -42 -92 -55 -120 -12 -27 -35 -77 -50 -110 -15 -33 -65 -143 -111 -244
-92 -202 -117 -245 -154 -262 -49 -22 -54 -26 -58 -37 -3 -9 39 -12 162 -12
141 0 166 2 166 15 0 8 -6 15 -12 15 -33 0 -89 23 -98 40 -15 28 18 121 132
373 150 331 168 370 172 366 2 -2 29 -62 61 -134 31 -71 63 -143 70 -160 187
-418 195 -444 155 -465 -10 -6 -39 -13 -63 -16 -28 -4 -44 -11 -44 -20 0 -12
41 -14 229 -14 193 0 228 2 228 15 0 8 -14 17 -34 20 -77 15 -90 38 -401 727
-77 169 -144 309 -151 312 -6 2 -23 -21 -37 -52z"/>
</g>
</svg>
